<svg width="614" height="191" viewBox="0 0 614 191" fill="none" xmlns="http://www.w3.org/2000/svg">
<path opacity="0.15" d="M5.97161 190.157L6.75813e-06 48.5474L130.67 4.94636C153.322 -2.59602 178.276 -1.48774 199.99 8.09947L275.313 41.3533C297.086 50.94 322.001 52.1046 344.693 44.5059L423.896 17.9871C446.608 10.3882 471.502 11.553 493.275 21.1397L613.753 74.3537L576.915 87.8855L495.706 52.02C471.582 41.3551 443.697 41.1882 419.43 51.506L336.847 86.5423C317.103 94.9152 294.753 96.3935 273.997 90.7697L191.174 68.2729C171.521 62.9558 150.507 63.9739 131.572 71.1829L2.92563 119.334L86.7683 92.7532C109.421 85.2108 134.375 86.3191 156.088 95.9063L231.412 129.16C253.185 138.747 278.1 139.911 300.792 132.313L379.994 105.794C402.706 98.1951 427.601 99.3598 449.394 108.946L569.872 162.16L533.034 175.692L451.825 139.827C427.701 129.162 399.815 128.995 375.549 139.313L292.966 174.349C273.221 182.722 250.872 184.256 230.116 178.576L147.292 156.079C127.639 150.762 106.626 151.781 87.6908 158.99L5.87146 190.139L5.97161 190.157Z" fill="white"/>
</svg>
